<?xml version="1.0" encoding="utf-8"?>
<!-- Generator: Adobe Illustrator 23.0.0, SVG Export Plug-In . SVG Version: 6.00 Build 0)  -->
<svg version="1.1" id="Capa_1" xmlns="http://www.w3.org/2000/svg" xmlns:xlink="http://www.w3.org/1999/xlink" x="0px" y="0px"
	 viewBox="0 0 217 135" style="enable-background:new 0 0 217 135;" xml:space="preserve">
<style type="text/css">
	.st0{fill:#0000C6;}
	.st1{enable-background:new    ;}
	.st2{fill:#FFFFFF;}
	.st3{fill:#F27E30;}
	.st4{fill:#09AA7F;}
</style>
<title>logo</title>
<rect class="st0" width="217" height="135"/>
<g class="st1">
	<path class="st2" d="M60.1,36.4v46.1h-4.6V42.6h-0.8L27.3,82.5h-5.7l32.2-46.1H60.1z"/>
</g>
<g class="st1">
	<path class="st3" d="M89.8,57.5v4.2l-18.9,42h-4.8l19-42H67.4v8.9h-4.2v-3.9v-5v-4.2h4.2H89.8z"/>
</g>
<g class="st1">
	<path class="st4" d="M97.8,61.5c-0.5,0.2-0.9,0.5-1.2,0.8c-0.4,0.3-0.6,0.7-0.8,1.2c-0.2,0.5-0.3,1-0.3,1.5c0,0.7,0.2,1.3,0.5,1.8
		c0.3,0.5,0.7,0.8,1.3,1.1c0.5,0.3,1.1,0.5,1.7,0.7c0.6,0.2,1.2,0.4,1.7,0.5c0.8,0.2,1.5,0.5,2.1,0.9c0.6,0.4,1.2,0.8,1.7,1.3
		s0.8,1.1,1.1,1.8c0.3,0.7,0.4,1.4,0.4,2.3c0,0.9-0.2,1.7-0.5,2.5c-0.3,0.8-0.8,1.4-1.4,2s-1.3,1-2.1,1.3c-0.8,0.3-1.6,0.5-2.5,0.5
		h-6.1v-1.9h1.1h4.9c0.6,0,1.2-0.1,1.7-0.3s1-0.5,1.4-0.9c0.4-0.4,0.7-0.8,1-1.4c0.2-0.5,0.3-1.1,0.3-1.7c0-0.7-0.1-1.4-0.4-1.9
		s-0.7-0.9-1.1-1.3c-0.5-0.4-1-0.6-1.6-0.9c-0.6-0.2-1.2-0.4-1.8-0.6c-0.8-0.2-1.5-0.5-2.1-0.8c-0.7-0.3-1.3-0.6-1.8-1
		c-0.5-0.4-0.9-0.9-1.2-1.6c-0.3-0.6-0.4-1.4-0.4-2.3c0-0.9,0.2-1.6,0.5-2.4c0.3-0.7,0.8-1.3,1.3-1.8c0.6-0.5,1.2-0.9,1.9-1.2
		c0.7-0.3,1.5-0.4,2.3-0.4h6.6v1.9h-2h-4.6C98.7,61.2,98.2,61.3,97.8,61.5z"/>
	<path class="st4" d="M114.6,81.7h-2.2V61.3h-5.2v-2h12.5v2h-5.1V81.7z"/>
	<path class="st4" d="M138.1,59.3v7.4v13v2h-0.8h-1.2h-7.8h-0.1c-1,0-2-0.2-2.8-0.5c-0.9-0.3-1.6-0.8-2.3-1.5
		c-0.3-0.3-0.6-0.6-0.8-1c-0.2-0.3-0.5-0.7-0.7-1.1c-0.3-0.7-0.5-1.4-0.7-2.2c-0.1-0.8-0.2-1.6-0.2-2.3V59.3h2.2V73
		c0,0.6,0,1.3,0.1,2c0.1,0.8,0.3,1.4,0.6,1.9c1,1.8,2.5,2.7,4.5,2.7h0.1h5.1h2.7V59.3H138.1z"/>
	<path class="st4" d="M153.3,61.2c1.6,1,2.8,2.4,3.7,4c0.9,1.7,1.3,3.4,1.3,5.3c0,0.9-0.1,1.8-0.4,2.7c-0.2,0.9-0.6,1.7-1,2.5
		c-0.4,0.8-1,1.5-1.6,2.2c-0.6,0.7-1.3,1.3-2.1,1.8c-0.5,0.3-1.1,0.6-1.7,0.8c-0.6,0.2-1.2,0.4-1.8,0.6c-0.6,0.1-1.3,0.3-1.9,0.3
		c-0.6,0.1-1.2,0.1-1.8,0.1h-6.5v-2h2.2h3.7c0.7,0,1.3,0,1.9-0.1s1.2-0.1,1.8-0.2c0.6-0.1,1.2-0.3,1.7-0.5s1.1-0.6,1.7-1
		c0.6-0.4,1.1-0.9,1.5-1.5c0.4-0.6,0.8-1.2,1.1-1.8c0.3-0.6,0.5-1.3,0.7-2c0.1-0.7,0.2-1.4,0.2-2.1c0-1.5-0.3-2.8-1-4.1
		c-0.7-1.3-1.6-2.4-2.8-3.2c-1.1-0.8-2.3-1.3-3.5-1.4s-2.5-0.3-3.8-0.3h-3.2h-2.2v-2.1h6.5c1.2,0,2.4,0.1,3.8,0.4
		S152.3,60.5,153.3,61.2z"/>
	<path class="st4" d="M160.5,59.3h2.3v22.4h-2.3V59.3z"/>
	<path class="st4" d="M176.4,81.7c-1.5,0-3-0.3-4.3-0.9s-2.6-1.4-3.6-2.4c-1-1-1.9-2.2-2.5-3.5c-0.6-1.4-0.9-2.8-0.9-4.3
		c0-1.6,0.3-3,0.9-4.4c0.6-1.4,1.4-2.6,2.4-3.6s2.2-1.8,3.6-2.4c1.4-0.6,2.9-0.9,4.4-0.9c1.5,0,3,0.3,4.4,0.9
		c1.4,0.6,2.6,1.4,3.6,2.4c1,1,1.9,2.2,2.5,3.5c0.6,1.4,0.9,2.8,0.9,4.4c0,1.5-0.3,3-0.9,4.4s-1.4,2.5-2.5,3.6c-1,1-2.3,1.8-3.6,2.4
		C179.4,81.4,177.9,81.7,176.4,81.7z M176.4,61.2c-1.3,0-2.5,0.2-3.6,0.7c-1.1,0.5-2.1,1.2-2.9,2c-0.8,0.8-1.5,1.8-2,3
		c-0.5,1.1-0.7,2.4-0.7,3.6c0,1.3,0.2,2.4,0.7,3.5c0.5,1.1,1.2,2.1,2,2.9c0.8,0.8,1.8,1.5,2.9,2c1.1,0.5,2.3,0.7,3.5,0.7
		s2.4-0.2,3.6-0.7c1.1-0.5,2.1-1.1,3-2c0.8-0.8,1.5-1.8,2-2.9c0.5-1.1,0.7-2.3,0.7-3.6c0-1.3-0.2-2.4-0.7-3.6c-0.5-1.1-1.2-2.1-2-3
		s-1.8-1.5-3-2C178.9,61.5,177.7,61.2,176.4,61.2z"/>
</g>
</svg>
